<?xml version="1.0" standalone="no"?>
<!DOCTYPE svg PUBLIC "-//W3C//DTD SVG 20010904//EN"
 "http://www.w3.org/TR/2001/REC-SVG-20010904/DTD/svg10.dtd">
<svg version="1.0" xmlns="http://www.w3.org/2000/svg"
 width="180.000000pt" height="180.000000pt" viewBox="0 0 180.000000 180.000000"
 preserveAspectRatio="xMidYMid meet">
<metadata>
Created by potrace 1.11, written by Peter Selinger 2001-2013
</metadata>
<g transform="translate(0.000000,180.000000) scale(0.100000,-0.100000)"
fill="#000000" stroke="none">
<path d="M1124 1504 c-128 -27 -234 -91 -280 -169 -19 -32 -33 -45 -57 -51
-39 -8 -147 -56 -185 -81 -15 -11 -43 -20 -62 -22 -19 -2 -62 -12 -97 -22 -35
-11 -64 -19 -65 -18 -6 3 -117 -68 -156 -99 -139 -114 -189 -318 -116 -472
129 -272 511 -380 818 -231 91 44 178 123 217 196 20 38 31 47 74 61 58 19
159 74 195 106 83 76 127 173 117 261 l-7 52 56 29 c210 110 211 305 1 409
-122 61 -310 82 -453 51z m334 -89 c125 -38 209 -113 197 -175 -10 -52 -46
-89 -120 -125 l-50 -25 -40 44 c-98 104 -243 166 -412 174 -95 4 -101 6 -90
23 17 28 97 67 179 89 89 23 254 21 336 -5z m-634 -220 c-7 -16 -31 -26 -56
-22 -32 5 -30 16 3 26 49 13 59 13 53 -4z m278 -6 c31 -14 56 -50 63 -89 l6
-32 -38 7 c-50 9 -142 51 -171 78 l-24 22 29 12 c35 15 105 16 135 2z m208
-45 c48 -30 82 -63 75 -75 -4 -5 -35 -9 -71 -9 -62 0 -64 1 -64 25 0 14 -7 42
-15 62 -8 19 -15 37 -15 39 0 6 52 -19 90 -42z m-594 -43 l22 -1 -25 -62 c-44
-107 -30 -218 34 -282 75 -76 209 -77 320 -2 23 16 39 22 43 15 10 -15 2 -101
-10 -113 -6 -6 -52 -11 -103 -12 -159 -3 -301 46 -393 133 -96 93 -103 207
-18 302 25 28 24 28 130 22z m-248 -58 c-49 -111 -14 -240 89 -333 105 -93
242 -142 405 -144 54 0 98 -4 98 -8 0 -16 -74 -89 -123 -121 -250 -164 -642
-80 -756 163 -38 81 -37 183 3 262 46 92 123 158 233 204 32 13 61 24 65 24 4
0 -3 -21 -14 -47z m451 -11 c55 -31 146 -121 154 -151 12 -47 -150 -119 -220
-98 -71 22 -100 94 -76 187 8 30 21 65 29 78 19 28 43 25 113 -16z m230 -47
c6 -7 -8 -35 -18 -35 -5 0 -16 12 -26 26 l-17 27 28 -7 c16 -4 31 -9 33 -11z
m296 -16 c16 -49 -20 -142 -77 -196 -33 -32 -140 -93 -162 -93 -7 0 -12 22
-13 63 -1 34 -6 75 -12 89 -7 19 -7 29 0 34 6 3 22 30 35 58 l23 51 68 5 c38
3 82 6 100 8 25 2 33 -2 38 -19z"/>
</g>
</svg>
